<svg width="200" height="200" viewBox="0 0 200 200" fill="none" xmlns="http://www.w3.org/2000/svg">
<rect width="200" height="200" rx="10" fill="#0F2332"/>
<path d="M130.083 144.032V44.3533V44.1899C130.083 41.2486 127.449 39.0426 124.289 39.0426C121.304 39.0426 118.758 41.1669 118.583 43.9448V49.0921C112.437 41.0852 103.219 37 91.1923 37C78.7263 37 68.2793 41.2486 60.1149 49.7458C52.1261 58.1613 48 69.6815 48 83.9796C48 97.379 51.5994 108.164 58.7103 116.171C65.909 124.26 75.4781 128.345 87.2418 128.345C100.937 128.345 111.472 123.606 118.583 114.373V144.849C120.251 143.542 122.533 142.725 124.903 142.725C126.747 142.643 128.591 143.133 130.083 144.032ZM118.583 88.7184C118.583 96.9705 115.861 104.079 110.594 109.716C105.414 115.354 97.6888 118.213 87.7686 118.213C79.5164 118.213 72.9322 115.272 67.7526 109.144C62.573 103.017 59.8516 94.4377 59.8516 83.5711C59.8516 71.9692 62.8364 62.9001 68.7183 56.5272C74.6002 50.1543 81.7989 47.0495 90.6656 47.0495C99.5323 47.0495 106.204 49.5007 111.208 54.648C116.125 59.7136 118.583 66.3316 118.583 74.2569V88.7184Z" fill="#FF7869"/>
<path d="M146.503 136.682C145.01 136.682 143.606 137.254 142.552 138.152L131.315 148.692C131.315 148.692 130.964 149.101 130.437 148.937C130.174 148.855 130.086 148.61 130.086 148.447C128.945 146.813 127.014 145.832 124.907 145.832C121.483 145.832 118.762 148.365 118.586 151.47C118.586 151.633 118.586 151.797 118.586 151.797C118.586 153.349 119.2 154.738 120.43 155.718L120.605 155.882L125.697 160.702L125.96 160.947H126.048C126.048 160.947 126.048 160.947 126.048 161.029C126.136 161.111 126.224 161.193 126.399 161.356C126.575 161.438 126.663 161.601 126.838 161.683C127.014 161.764 127.101 161.846 127.277 161.928C127.453 162.01 127.54 162.091 127.716 162.091H127.804C127.979 162.173 128.067 162.173 128.243 162.255H128.331C128.506 162.336 128.594 162.336 128.769 162.336H128.857C129.033 162.336 129.121 162.418 129.296 162.418C129.384 162.418 129.384 162.418 129.472 162.418C129.647 162.418 129.823 162.418 130.086 162.418C130.262 162.418 130.437 162.418 130.701 162.418C130.789 162.418 130.789 162.418 130.876 162.418C131.052 162.418 131.14 162.418 131.315 162.336H131.403C131.579 162.336 131.667 162.255 131.842 162.255H131.93C132.105 162.173 132.281 162.173 132.369 162.091C132.544 162.01 132.72 161.928 132.808 161.846C133.335 161.601 133.773 161.274 134.125 160.866L150.453 145.587C151.507 144.607 152.121 143.3 152.121 141.829C152.209 139.133 149.663 136.682 146.503 136.682Z" fill="#FF7869"/>
</svg>
